<?xml version="1.0" standalone="no"?>
<!DOCTYPE svg PUBLIC "-//W3C//DTD SVG 20010904//EN"
 "http://www.w3.org/TR/2001/REC-SVG-20010904/DTD/svg10.dtd">
<svg version="1.0" xmlns="http://www.w3.org/2000/svg"
 width="288.000000pt" height="117.000000pt" viewBox="0 0 288.000000 117.000000"
 preserveAspectRatio="xMidYMid meet">
<metadata>
Created by potrace 1.16, written by Peter Selinger 2001-2019
</metadata>
<g transform="translate(0.000000,117.000000) scale(0.100000,-0.100000)"
fill="#000000" stroke="none">
<path d="M473 1115 c-29 -12 -33 -19 -33 -53 0 -33 -4 -41 -23 -46 -32 -8
-116 -65 -128 -87 -6 -13 -6 -25 1 -39 14 -27 11 -26 -59 16 -58 35 -62 36
-85 20 -33 -21 -81 -92 -96 -142 -19 -63 -11 -86 37 -109 l41 -20 -3 -65 -4
-65 -40 -17 c-23 -9 -41 -23 -42 -30 -7 -79 73 -228 122 -228 11 0 34 7 50 16
30 15 31 15 75 -26 47 -43 98 -70 135 -70 19 0 21 -4 16 -36 -11 -65 53 -93
186 -81 73 7 100 30 90 77 -5 26 -2 30 23 36 74 18 163 87 151 118 -9 22 3 20
45 -9 20 -14 46 -25 56 -25 40 0 113 108 126 186 8 46 -6 69 -51 80 -22 6 -24
11 -19 37 3 16 6 46 6 66 0 33 4 39 36 55 36 17 36 18 30 61 -7 57 -45 131
-85 169 -30 29 -33 29 -67 17 -35 -13 -37 -12 -73 22 -39 37 -67 55 -113 67
-23 7 -32 5 -49 -13 l-21 -22 7 47 c9 61 1 84 -37 97 -44 15 -167 13 -205 -4z
m218 -22 c7 -7 7 -38 0 -104 l-10 -94 4 93 5 93 -27 10 c-15 5 -36 8 -47 6
-16 -3 -14 -5 7 -6 41 -2 32 -21 -10 -22 -33 -1 -35 -2 -13 -8 17 -5 24 -14
23 -27 -1 -10 0 -13 3 -6 8 17 22 15 27 -5 4 -14 5 -12 6 5 0 12 -4 22 -10 22
-5 0 -7 5 -4 11 4 5 12 8 18 6 21 -7 -6 -279 -33 -326 -11 -19 -13 -13 -29 69
l-10 55 6 -60 c3 -33 10 -66 16 -73 17 -21 -14 -45 -47 -36 -16 4 -24 9 -18
13 5 3 12 26 15 51 l6 45 -11 -42 c-6 -24 -14 -43 -18 -43 -16 0 -45 142 -56
275 -7 83 -6 89 9 76 9 -7 15 -17 12 -21 -3 -4 2 -10 10 -14 9 -3 15 0 15 9 0
7 8 16 18 18 11 3 7 5 -10 6 -15 0 -30 6 -33 11 -3 6 -13 10 -21 10 -10 0 -14
-14 -14 -57 0 -86 27 -248 49 -299 11 -25 18 -51 15 -59 -10 -24 -41 -17 -63
14 -11 16 -43 46 -71 67 -28 21 -47 40 -41 42 5 2 -6 26 -25 55 -19 28 -33 56
-31 61 6 19 75 68 113 81 36 12 39 17 44 56 4 30 11 44 25 49 30 11 193 6 206
-7z m147 -130 c42 -24 67 -53 74 -84 2 -11 -27 -36 -89 -78 -51 -34 -107 -79
-126 -101 -33 -39 -60 -50 -72 -30 -4 6 3 38 15 72 12 34 24 84 27 110 3 26 9
45 13 43 5 -3 22 20 39 51 36 62 40 63 119 17z m-581 -95 c46 -28 87 -56 91
-62 3 -6 -5 -4 -18 5 -123 80 -163 100 -176 87 -10 -11 -10 -15 2 -26 12 -11
14 -10 14 4 0 10 5 14 16 10 36 -14 212 -137 244 -172 19 -20 30 -34 24 -31
-7 4 -18 -1 -25 -11 -13 -15 -12 -16 4 -3 12 9 17 10 17 2 0 -7 4 -10 9 -6 14
8 20 -7 11 -31 -16 -41 -106 -27 -287 44 -51 20 -93 40 -93 45 0 5 6 7 13 4 7
-3 21 1 32 9 17 12 17 14 2 14 -9 0 -17 -4 -17 -9 0 -5 -9 -7 -20 -4 -24 6
-25 13 -5 60 25 59 34 67 59 46 l21 -18 -20 25 c-11 14 -20 26 -21 28 -4 8
-48 -74 -60 -111 -7 -23 -13 -33 -13 -22 -1 31 37 107 72 143 17 17 33 32 35
32 3 0 42 -23 89 -52z m774 10 c30 -33 69 -123 69 -158 0 -13 -12 -25 -35 -34
-33 -14 -35 -17 -35 -65 0 -27 -4 -61 -10 -75 -8 -23 -6 -28 20 -41 56 -29 30
-24 -57 12 -48 19 -120 43 -160 53 -171 44 -183 84 -55 179 71 53 197 131 212
131 6 0 10 -4 10 -10 0 -5 -7 -10 -15 -10 -9 0 -12 -6 -9 -15 5 -11 8 -12 18
-2 7 7 15 19 18 27 3 10 13 1 32 -27 16 -24 26 -49 22 -58 -3 -9 -2 -13 4 -10
6 3 10 -1 10 -10 0 -11 -5 -15 -16 -11 -8 3 -12 2 -9 -4 3 -6 -1 -10 -9 -10
-10 0 -13 -6 -9 -16 4 -11 8 -12 13 -4 5 7 13 9 20 5 8 -5 11 -4 6 3 -3 6 -2
13 4 17 5 3 10 -1 10 -10 0 -30 -271 -133 -325 -123 -13 3 -22 1 -19 -3 10
-17 65 -8 171 27 127 42 183 69 183 88 0 50 -71 173 -92 160 -7 -4 -8 -2 -4 4
10 17 -15 14 -38 -3 -11 -8 -25 -15 -30 -15 -6 0 3 9 19 20 41 27 51 25 86
-12z m-743 -252 c46 -14 102 -26 125 -27 36 -1 30 -3 -41 -19 -46 -11 -133
-39 -195 -64 -61 -25 -113 -43 -115 -41 -2 2 15 12 38 22 l42 18 3 77 3 77
-44 17 c-24 9 -44 20 -44 25 0 4 33 -7 73 -26 39 -18 109 -45 155 -59z m162
-60 c1 12 30 -27 30 -39 0 -5 -6 -5 -13 1 -10 9 -13 5 -13 -15 1 -31 -67 -91
-190 -167 -69 -42 -123 -64 -81 -32 12 9 14 16 7 21 -5 3 -7 11 -4 17 8 13
-12 2 -37 -19 -15 -12 -19 -10 -37 19 -26 42 -38 88 -23 88 6 0 8 6 5 14 -6
15 89 58 210 95 83 25 94 26 120 4 12 -10 15 -11 9 -3 -18 20 -16 35 2 20 8
-7 15 -9 15 -4z m305 2 c54 10 325 -93 325 -123 0 -9 -5 -13 -10 -10 -6 4 -8
11 -5 16 3 5 -1 6 -9 3 -10 -4 -16 -1 -16 7 0 11 -2 11 -9 -1 -12 -17 -4 -32
12 -24 7 3 3 -2 -7 -10 -11 -9 -15 -16 -9 -16 7 0 15 5 18 10 9 14 25 12 25
-3 0 -7 -9 -30 -20 -52 -20 -39 -20 -39 -1 -15 23 29 46 104 36 119 -3 6 -1
11 4 11 30 0 -7 -112 -56 -169 -28 -33 -40 -40 -57 -35 -29 9 -138 75 -133 81
3 2 30 -12 62 -32 31 -20 59 -35 61 -32 3 3 -30 26 -73 52 -43 26 -98 64 -122
84 -25 20 -49 39 -55 43 -6 4 -3 15 9 30 l20 23 -22 -18 c-21 -18 -22 -18 -33
3 -14 26 -5 58 18 62 9 2 18 1 20 -3 1 -3 14 -4 27 -1z m-223 -59 c2 -6 -7
-42 -19 -80 -13 -38 -30 -120 -37 -182 -11 -90 -14 -101 -15 -57 -2 55 -2 55
-17 28 -19 -35 -37 -35 -101 2 -65 38 -92 73 -72 96 8 9 -10 2 -39 -16 -29
-18 -55 -30 -57 -28 -3 2 25 21 61 43 126 73 240 167 228 187 -4 6 -3 8 4 4 6
-3 13 -2 17 4 8 13 42 13 47 -1z m156 -19 c12 -16 52 -52 89 -80 36 -27 61
-50 54 -50 -6 0 1 -18 15 -40 l27 -41 -24 -25 c-34 -36 -78 -61 -122 -69 -37
-7 -38 -8 -35 -47 4 -57 -27 -72 -133 -66 -75 4 -109 18 -109 42 0 6 5 3 11
-7 5 -9 18 -17 27 -17 14 0 14 2 3 9 -22 14 -6 187 30 324 12 47 26 47 35 2 9
-49 16 -37 8 13 -4 25 -11 39 -17 35 -6 -3 -7 -1 -3 5 10 16 51 15 65 -2 6 -7
9 -22 5 -32 -5 -15 -4 -16 4 -5 11 16 10 20 32 -79 5 -25 13 -91 16 -148 4
-56 10 -104 13 -106 3 -3 3 44 -1 102 -6 107 -29 226 -49 263 -27 51 24 67 59
19z"/>
<path d="M1585 899 c-130 -20 -219 -68 -255 -138 -39 -77 -15 -176 48 -196 18
-5 32 -12 32 -16 0 -4 -20 -17 -45 -29 -34 -17 -59 -21 -104 -18 -62 3 -70 -7
-28 -35 60 -39 150 -32 206 17 20 18 66 46 103 63 l66 31 -8 -28 c-17 -59 15
-110 68 -110 19 0 23 4 17 18 -16 36 -16 72 -1 124 14 50 31 68 88 96 3 2 -7
-39 -24 -90 -37 -116 -31 -138 36 -138 59 0 92 16 117 57 29 46 31 130 3 150
-10 8 -31 13 -46 10 -16 -2 -28 -1 -28 2 0 3 22 48 49 99 48 89 49 92 26 92
-40 0 -55 -11 -80 -60 -20 -39 -95 -114 -95 -95 0 17 56 114 82 142 l31 32
-39 9 c-62 16 -154 21 -219 11z m125 -25 c0 -3 -28 -41 -61 -85 l-62 -79 -16
32 c-14 29 -22 33 -59 36 -49 4 -65 -17 -38 -47 21 -24 20 -43 -5 -75 -55 -69
-130 14 -83 93 20 34 94 85 160 111 45 17 164 28 164 14z"/>
<path d="M2761 775 c-16 -14 -35 -42 -41 -63 -7 -20 -19 -47 -26 -59 -8 -13
-11 -24 -7 -24 5 -1 15 -2 23 -3 8 0 23 -22 34 -48 16 -39 17 -52 8 -73 -15
-33 -50 -33 -58 0 -4 15 -1 32 7 41 12 14 11 16 -5 13 -49 -10 -44 -83 7 -107
34 -17 92 -1 108 30 13 25 4 79 -22 130 -29 56 -24 83 21 132 22 24 40 46 40
50 0 17 -62 3 -89 -19z"/>
<path d="M1985 638 c-50 -39 -70 -122 -39 -166 17 -24 62 -30 82 -10 9 9 15 9
24 0 21 -21 38 -14 38 16 0 16 11 62 25 102 14 40 25 75 25 77 0 8 -37 2 -47
-8 -8 -8 -13 -8 -17 0 -12 18 -62 12 -91 -11z"/>
<path d="M2144 623 c-22 -52 -39 -136 -31 -156 3 -9 15 -17 25 -17 16 0 20 10
25 54 6 56 22 92 46 101 21 8 24 -1 12 -36 -15 -42 -14 -112 1 -127 7 -7 19
-12 28 -12 12 0 15 13 16 62 1 35 4 84 9 111 l8 47 -30 0 c-16 0 -34 -5 -41
-12 -9 -9 -12 -8 -12 5 0 34 -40 19 -56 -20z"/>
<path d="M2435 653 c-64 -16 -108 -122 -75 -184 14 -25 60 -25 94 2 38 30 35
56 -4 27 -38 -28 -55 -15 -46 35 11 58 76 107 76 57 0 -29 18 -25 26 5 4 18 1
32 -11 45 -18 20 -24 22 -60 13z"/>
<path d="M2571 647 c-58 -29 -89 -123 -57 -172 45 -69 146 15 146 121 0 61
-33 80 -89 51z"/>
</g>
</svg>
