<?xml version="1.0" standalone="no"?>
<!DOCTYPE svg PUBLIC "-//W3C//DTD SVG 20010904//EN"
 "http://www.w3.org/TR/2001/REC-SVG-20010904/DTD/svg10.dtd">
<svg version="1.0" xmlns="http://www.w3.org/2000/svg"
 width="2675.000000pt" height="1099.000000pt" viewBox="0 0 2675.000000 1099.000000"
 preserveAspectRatio="xMidYMid meet">
<metadata>
Created by potrace 1.16, written by Peter Selinger 2001-2019
</metadata>
<g transform="translate(0.000000,1099.000000) scale(0.100000,-0.100000)"
fill="#000000" stroke="none">
<path d="M3199 10660 c-82 -43 -129 -142 -129 -269 0 -43 7 -100 15 -127 15
-48 14 -49 -7 -64 -98 -65 -151 -221 -117 -345 18 -66 49 -121 80 -139 27 -16
31 -16 64 0 27 12 42 31 64 78 16 33 32 70 36 81 6 18 9 15 26 -18 23 -43 38
-52 74 -43 26 7 65 69 65 104 0 31 11 33 42 7 50 -42 130 -28 177 31 28 36 63
132 56 155 -12 36 -41 22 -56 -28 -18 -59 -57 -91 -95 -77 -51 18 -51 36 -1
97 104 128 97 291 -12 273 -79 -12 -134 -124 -135 -273 -1 -51 -4 -93 -8 -93
-5 0 -8 -15 -8 -32 0 -38 -14 -66 -24 -50 -4 6 -43 111 -87 234 -91 252 -104
317 -70 360 12 15 37 32 55 38 26 8 38 21 50 51 29 73 15 86 -55 49z m-58
-551 c18 -34 24 -170 9 -215 -14 -43 -37 -74 -55 -74 -24 0 -58 93 -63 172 -4
75 -4 78 26 108 36 35 67 39 83 9z"/>
<path d="M5080 10643 c-113 -10 -384 -60 -490 -89 -164 -46 -349 -108 -380
-129 -88 -57 -122 -105 -150 -210 -20 -74 -20 -86 -9 -269 6 -105 12 -227 13
-271 l1 -80 -55 -13 c-323 -74 -652 -239 -950 -476 -104 -83 -336 -319 -380
-388 -63 -97 -73 -205 -30 -320 16 -42 111 -208 162 -280 15 -23 16 -28 4 -28
-8 0 -17 4 -20 8 -3 5 -72 51 -153 102 -81 51 -173 109 -203 129 -83 55 -645
393 -696 419 -25 12 -79 30 -120 39 -71 15 -80 15 -152 -2 -94 -22 -123 -43
-280 -200 -228 -229 -409 -479 -551 -764 -81 -162 -169 -374 -191 -460 -5 -20
-23 -90 -40 -156 -38 -150 -80 -378 -80 -439 0 -68 28 -156 66 -209 46 -64
109 -103 325 -202 101 -47 193 -90 204 -95 11 -5 40 -18 65 -28 202 -87 240
-106 240 -119 0 -8 -11 -63 -25 -120 -49 -201 -67 -360 -66 -578 0 -110 5
-236 11 -280 6 -44 13 -100 16 -125 l6 -45 -238 -104 c-280 -122 -442 -200
-480 -230 -57 -45 -102 -119 -119 -198 -18 -83 -18 -89 22 -308 39 -215 92
-412 159 -585 35 -90 157 -338 217 -440 47 -81 195 -292 234 -335 10 -11 36
-43 57 -70 65 -82 277 -294 326 -325 25 -16 75 -36 113 -46 58 -14 76 -15 130
-4 74 14 145 43 209 84 26 17 82 51 125 75 43 25 133 78 200 118 67 40 126 73
130 73 4 -1 21 -21 36 -45 59 -93 228 -294 328 -391 202 -194 487 -387 719
-488 137 -59 383 -136 484 -151 52 -8 178 18 197 41 14 17 39 18 39 2 0 -7 -7
-105 -14 -218 -29 -407 -30 -459 -11 -530 20 -79 45 -122 99 -174 51 -49 102
-71 291 -129 352 -107 569 -141 905 -142 247 0 327 7 545 46 216 39 525 132
595 178 66 43 113 113 134 196 20 81 21 124 6 418 -6 120 -8 222 -5 227 3 4
24 11 48 15 65 11 290 62 317 73 14 5 57 20 95 32 72 24 272 106 290 120 6 5
54 33 108 63 209 119 359 235 549 427 149 151 174 186 199 280 17 67 17 76 3
148 -11 54 -28 96 -56 140 -22 35 -37 66 -34 69 2 3 29 -11 58 -30 119 -77
366 -225 568 -340 69 -39 147 -86 173 -104 50 -33 79 -44 178 -65 48 -10 68
-9 133 6 99 24 139 52 271 189 224 231 367 423 508 685 179 330 273 619 342
1053 16 100 16 111 0 183 -24 106 -78 179 -176 234 -34 19 -530 240 -573 256
-13 4 -17 12 -12 29 37 126 71 269 92 393 23 128 26 179 27 364 0 119 -6 263
-13 324 -15 126 -27 109 115 169 50 21 113 48 140 61 28 12 95 43 150 67 82
36 111 55 166 110 62 61 67 69 84 142 12 52 16 95 12 134 -24 229 -102 556
-185 778 -96 254 -279 575 -451 789 -89 112 -90 113 -205 233 -134 138 -188
176 -284 199 -70 16 -77 16 -152 -1 -43 -10 -99 -30 -124 -44 -24 -14 -98 -57
-163 -95 -183 -107 -204 -119 -207 -115 -1 2 -23 31 -47 64 -145 197 -317 384
-449 486 -248 193 -510 345 -725 419 -118 41 -308 90 -349 90 -90 0 -205 -56
-256 -125 -21 -28 -142 -224 -160 -259 l-15 -30 -3 38 c-2 21 6 176 17 344 34
508 36 629 16 711 -27 111 -80 178 -180 228 -116 58 -508 156 -770 192 -71 10
-505 13 -595 4z m626 -188 c136 -17 279 -49 489 -109 269 -78 270 -79 260
-406 -3 -124 -13 -315 -20 -425 -8 -110 -19 -264 -25 -343 -13 -184 -59 -640
-86 -842 l-6 -45 21 33 c12 18 21 35 21 37 0 3 22 44 49 93 27 48 84 150 126
227 43 77 99 176 125 220 218 372 255 429 300 453 38 20 130 7 265 -37 168
-55 235 -80 270 -100 17 -10 71 -40 120 -66 175 -94 376 -244 525 -394 126
-126 282 -318 306 -378 27 -62 9 -135 -50 -200 -11 -13 -17 -23 -13 -23 3 0
68 37 144 82 146 86 285 167 318 186 262 143 268 146 319 146 28 0 63 -7 78
-15 57 -30 241 -223 390 -410 38 -48 158 -225 158 -234 0 -2 17 -33 38 -67 37
-62 172 -338 172 -352 0 -5 6 -22 14 -39 27 -59 95 -282 115 -372 10 -49 29
-156 42 -237 25 -165 21 -203 -28 -253 -36 -35 -73 -53 -375 -185 -288 -125
-284 -123 -281 -141 23 -139 35 -248 44 -405 13 -218 4 -313 -57 -619 -38
-194 -71 -284 -120 -330 l-34 -33 202 -87 c112 -47 217 -97 235 -111 17 -13
40 -24 50 -24 10 0 32 -9 48 -20 17 -11 39 -20 50 -20 19 -1 19 -1 2 -11 -14
-8 -23 -7 -38 7 -10 9 -22 15 -25 11 -14 -13 46 -39 76 -32 17 4 36 3 43 -2 7
-6 38 -20 71 -33 67 -27 122 -72 111 -91 -5 -7 -1 -17 10 -25 10 -7 15 -20 12
-29 -4 -8 -2 -15 2 -15 5 0 12 -7 15 -16 12 -31 -99 -539 -144 -659 -49 -132
-242 -520 -306 -615 -55 -83 -140 -181 -148 -172 -4 3 -4 -1 -1 -10 4 -11 0
-18 -14 -23 -11 -3 -18 -11 -16 -18 2 -7 -12 -30 -32 -52 -20 -22 -30 -32 -23
-22 7 9 11 20 8 23 -3 2 -13 -11 -22 -30 -9 -18 -23 -36 -31 -40 -8 -3 -15
-12 -15 -21 0 -8 -7 -15 -15 -15 -8 0 -15 -4 -15 -8 0 -5 -40 -50 -90 -100
-86 -88 -114 -104 -136 -82 -16 16 -64 22 -64 9 0 -6 9 -9 20 -6 11 3 17 1 14
-5 -7 -11 -61 -1 -86 17 -10 6 -15 15 -11 18 10 11 25 8 18 -3 -3 -5 3 -10 14
-10 35 0 23 14 -30 37 -27 12 -47 18 -45 14 10 -15 -40 -4 -85 19 -24 13 -68
38 -97 56 -29 19 -92 54 -140 78 -145 73 -616 364 -964 597 -98 66 -178 117
-178 114 0 -2 29 -50 65 -105 113 -175 371 -603 392 -651 55 -123 47 -152 -82
-292 -56 -62 -145 -149 -196 -194 -102 -89 -257 -196 -271 -187 -5 3 -7 0 -6
-6 2 -6 -34 -30 -78 -54 -45 -23 -95 -52 -112 -64 -16 -12 -35 -22 -40 -22 -5
0 -44 -16 -85 -36 -102 -48 -273 -100 -447 -134 -174 -35 -195 -36 -238 -10
-18 11 -35 20 -39 20 -3 0 -2 -60 2 -133 4 -72 10 -240 14 -372 6 -194 5 -242
-6 -251 -16 -14 -17 -31 -1 -36 9 -3 9 -12 -1 -36 -14 -33 -27 -41 -34 -19 -2
6 -2 0 0 -14 3 -20 -3 -30 -23 -44 -22 -14 -28 -15 -35 -4 -7 11 -12 12 -29 1
-22 -13 -60 -16 -60 -4 0 18 33 52 50 52 10 0 22 5 25 10 4 6 15 8 26 5 13 -4
19 -2 19 8 0 8 7 20 15 27 8 7 15 17 15 22 0 11 -21 -9 -39 -37 l-13 -20 8 20
c16 41 16 124 1 139 -13 13 -19 4 -55 -77 -67 -155 -75 -177 -69 -184 4 -3 7
2 7 13 0 14 3 15 8 6 7 -10 15 -10 36 -2 15 5 33 10 39 10 17 0 -41 -29 -68
-34 -13 -2 -32 -9 -43 -15 -57 -30 -218 -66 -527 -117 -203 -33 -691 -13 -897
37 -168 41 -470 129 -485 141 -7 5 -15 29 -18 52 -4 27 -12 43 -21 43 -16 0
-19 -13 -4 -22 6 -3 10 -13 10 -22 0 -10 -7 -6 -22 13 -24 30 -25 46 -20 399
2 126 35 548 67 855 14 129 25 242 25 250 0 8 -27 -35 -61 -96 -33 -60 -71
-122 -85 -137 -14 -15 -23 -27 -20 -27 3 0 -18 -39 -46 -88 -28 -48 -62 -107
-75 -132 -40 -73 -64 -102 -80 -96 -8 3 -12 2 -9 -3 7 -10 -40 -31 -78 -35
-30 -4 -148 28 -246 66 -36 13 -83 31 -105 38 -22 7 -91 37 -153 66 -62 30
-115 54 -117 54 -10 0 -152 95 -195 129 -25 20 -58 45 -75 56 -50 31 -125 97
-120 106 3 4 0 11 -6 15 -8 4 -9 3 -5 -4 4 -7 3 -12 -2 -12 -22 0 -275 277
-338 370 -60 90 -68 107 -68 149 0 37 7 57 33 94 40 59 102 167 95 167 -3 0
-25 -13 -48 -30 -113 -77 -679 -410 -698 -410 -12 0 -18 -3 -15 -7 4 -3 -12
-15 -36 -25 -23 -11 -43 -18 -44 -16 -1 2 -12 -7 -25 -18 -59 -55 -178 -76
-227 -42 -76 54 -255 234 -324 327 -43 58 -87 116 -97 128 -10 12 -23 30 -29
42 -6 11 -38 55 -70 99 -133 175 -343 672 -376 887 -3 22 -17 105 -30 185 -31
182 -32 230 -5 253 11 9 20 13 21 9 0 -4 4 3 9 16 5 12 14 22 20 22 6 0 8 -4
5 -10 -3 -6 1 -7 10 -3 11 4 13 8 6 13 -17 10 13 33 84 65 119 54 502 223 593
261 l94 39 -5 35 c-3 19 -15 96 -27 170 -24 153 -28 353 -11 586 12 158 35
283 85 459 19 66 32 123 28 126 -4 3 -25 13 -47 21 -93 37 -580 255 -694 311
-134 67 -176 104 -187 164 -10 52 40 353 83 493 66 219 154 441 225 564 22 39
51 89 63 111 43 75 90 150 116 185 139 188 194 253 310 368 172 168 170 167
244 166 60 -2 98 -16 162 -62 17 -12 36 -22 42 -22 10 0 397 -232 644 -386
310 -194 885 -584 1042 -708 21 -17 36 -26 33 -21 -4 6 -85 128 -180 272 -223
338 -288 438 -288 447 0 4 -20 37 -43 74 -180 279 -196 325 -136 415 80 122
401 412 540 489 26 15 69 42 96 62 28 20 53 36 56 36 4 0 52 22 108 50 145 71
371 149 542 186 72 16 77 19 77 43 0 14 -5 98 -10 186 -15 242 -18 434 -9 490
14 78 50 106 194 155 181 61 369 104 635 144 114 17 473 12 646 -9z"/>
<path d="M5070 10373 c-112 -12 -596 -124 -685 -159 -77 -30 -78 -32 -71 -184
56 -1188 213 -2325 403 -2915 87 -269 176 -477 255 -595 24 -35 28 -48 19 -60
-19 -25 -80 -156 -87 -187 -15 -64 -69 -80 -164 -47 -30 11 -72 15 -132 13
l-87 -3 -54 79 c-134 202 -282 378 -401 480 -16 14 -187 166 -211 188 -377
345 -1236 939 -1980 1370 -110 63 -208 122 -217 131 -30 26 -76 46 -110 46
-29 0 -48 -15 -168 -138 -161 -164 -200 -213 -330 -417 -208 -325 -257 -431
-374 -816 -24 -77 -86 -370 -86 -404 0 -20 42 -65 65 -69 11 -3 70 -29 130
-59 91 -45 225 -105 560 -252 523 -229 1221 -484 1690 -616 268 -76 326 -88
627 -133 237 -36 363 -43 476 -27 51 7 54 6 63 -17 6 -14 7 -39 3 -55 -6 -29
-6 -29 -63 -22 -363 42 -1053 -103 -1831 -385 -80 -29 -186 -67 -236 -86 -82
-29 -400 -155 -624 -247 -202 -82 -538 -230 -692 -305 -196 -95 -181 -66 -144
-272 30 -167 49 -236 126 -469 78 -233 81 -240 273 -551 145 -236 172 -272
310 -417 73 -77 141 -152 153 -168 18 -25 27 -30 63 -29 27 1 54 10 73 24 16
12 45 23 64 25 19 1 38 6 42 10 4 4 -3 4 -15 1 -18 -6 -20 -4 -16 14 3 11 10
20 16 20 7 0 54 26 107 57 254 151 502 302 567 343 39 25 107 67 150 95 205
130 494 323 624 417 443 320 489 357 820 649 201 177 222 198 321 326 94 121
214 287 220 303 2 7 27 7 81 -1 71 -11 82 -10 136 10 96 35 171 22 171 -30 0
-21 58 -158 79 -187 l18 -25 -50 -81 c-65 -105 -142 -285 -232 -541 -60 -171
-156 -588 -209 -910 -98 -585 -176 -1313 -206 -1923 -11 -231 -10 -241 39
-267 48 -24 421 -125 616 -166 40 -8 165 -13 380 -13 l320 -1 235 52 c344 77
317 65 333 149 l6 32 -107 -34 c-253 -81 -423 -111 -692 -120 -238 -9 -468 14
-675 67 -80 20 -322 97 -339 107 -14 8 36 31 69 31 17 0 152 -17 300 -38 266
-38 275 -39 586 -40 321 -2 464 8 697 45 78 13 111 14 137 7 38 -12 37 -13 50
62 4 22 22 93 41 158 40 138 40 154 19 487 -61 960 -177 1773 -320 2250 -91
303 -151 458 -221 573 -59 98 -64 110 -51 125 16 17 36 68 64 157 31 99 30 98
98 90 33 -4 111 -9 174 -10 108 -2 115 -4 123 -25 21 -57 210 -302 308 -400
113 -114 383 -356 520 -467 227 -184 657 -487 1029 -725 187 -119 769 -474
812 -495 9 -4 131 18 147 27 9 4 -13 22 -65 52 -205 117 -436 256 -716 429
-828 513 -1537 1071 -1790 1408 -126 167 -147 208 -147 279 0 26 -7 56 -15 66
-22 29 -18 52 10 70 14 9 50 55 81 103 64 99 122 158 179 184 44 20 69 24 60
9 -8 -13 31 -36 85 -50 179 -47 1270 -403 1610 -525 41 -15 278 -100 525 -190
747 -272 727 -263 720 -313 -2 -15 -4 -35 -4 -45 -1 -23 -58 -80 -96 -94 -72
-27 -87 -25 -272 48 -417 164 -1048 416 -1168 466 -325 138 -510 219 -953 417
-297 132 -467 206 -476 206 -4 0 -6 -5 -6 -10 0 -10 70 -45 245 -123 44 -19
233 -102 420 -185 722 -319 947 -413 1585 -661 424 -166 639 -241 689 -241 26
0 38 12 100 100 39 56 71 107 71 114 0 35 -56 61 -405 191 -490 182 -556 205
-1070 381 -496 169 -628 212 -970 319 -82 26 -226 71 -320 100 -93 30 -199 62
-235 73 -64 19 -65 19 -38 32 21 10 59 10 190 1 256 -18 397 -44 758 -137 214
-56 721 -220 935 -302 44 -18 157 -61 250 -96 261 -99 1020 -418 1077 -453 4
-2 -9 -21 -30 -41 -41 -40 -111 -121 -166 -192 -44 -57 -280 -470 -351 -615
-52 -106 -153 -354 -220 -540 -38 -105 -52 -199 -35 -221 20 -23 25 -17 27 39
7 176 244 735 459 1082 93 150 171 270 188 289 6 6 23 27 38 47 68 91 124 130
143 99 4 -6 -11 -31 -32 -57 -102 -122 -239 -329 -391 -593 -111 -193 -296
-633 -336 -799 -13 -53 -22 -99 -20 -102 8 -14 77 10 92 32 85 114 228 328
258 384 260 493 288 554 364 775 92 269 124 340 155 340 14 0 13 -21 -14 -170
-56 -320 -157 -594 -313 -855 -9 -16 -24 -42 -33 -57 -43 -76 -182 -263 -251
-337 l-78 -84 63 6 c74 8 85 15 145 106 289 437 326 498 365 601 124 320 177
491 201 650 11 74 22 148 25 163 10 61 -1 68 -440 262 -652 288 -1453 586
-1930 716 -521 143 -904 199 -1160 170 -48 -5 -72 -4 -77 3 -10 15 -10 64 1
70 4 3 49 1 100 -5 73 -9 123 -8 254 5 394 41 536 68 962 186 547 152 1580
543 2113 800 213 104 197 74 157 290 -27 152 -47 230 -111 445 -57 188 -56
187 -199 440 -166 295 -210 358 -358 516 -40 42 -100 108 -135 148 -56 63 -67
71 -98 71 -35 0 -97 -30 -160 -77 -17 -13 -33 -23 -36 -23 -10 0 -277 -154
-473 -272 -786 -474 -1246 -794 -1710 -1186 -185 -157 -269 -240 -370 -367
-22 -27 -44 -55 -50 -61 -55 -62 -152 -190 -179 -237 -19 -34 -24 -37 -51 -30
-52 13 -148 8 -201 -11 -69 -25 -121 -16 -130 22 -13 52 -76 207 -91 224 -14
16 -13 21 15 55 32 41 36 50 124 263 108 265 148 380 183 523 139 587 221
1173 285 2057 28 390 38 811 19 826 -15 12 -288 95 -469 143 -81 21 -158 33
-262 40 -137 10 -469 12 -548 4z m614 -99 c77 -9 183 -27 235 -40 147 -38 331
-97 331 -106 0 -4 -14 -14 -32 -21 -28 -11 -43 -11 -104 4 -156 37 -408 54
-789 53 -377 -1 -457 -6 -691 -49 -107 -20 -146 -24 -167 -16 -15 6 -27 14
-27 19 0 11 165 66 305 100 114 29 253 53 395 71 88 11 374 3 544 -15z m171
-154 c141 -13 255 -31 255 -40 0 -4 -75 -19 -167 -34 -202 -32 -558 -50 -803
-40 -178 7 -538 48 -552 62 -16 16 189 44 472 66 95 7 680 -3 795 -14z m370
-91 c17 -26 -60 -65 -168 -85 -21 -3 -36 -8 -34 -10 6 -6 189 26 209 37 9 5
19 9 21 9 5 0 3 -45 -24 -480 -80 -1341 -258 -2331 -500 -2789 -57 -107 -87
-144 -141 -172 -70 -36 -234 -55 -323 -38 -77 15 -173 58 -199 90 -29 35 -124
219 -164 319 -205 518 -366 1498 -447 2735 -8 127 -15 252 -15 278 0 45 1 47
21 37 11 -7 30 -13 42 -15 28 -5 306 -51 421 -70 64 -11 174 -15 390 -15 294
-1 306 0 501 32 217 36 242 49 44 23 -272 -36 -889 -30 -1154 11 -180 28 -245
51 -245 84 0 24 15 25 112 5 235 -50 323 -58 694 -62 l362 -5 213 32 c118 17
241 37 274 44 76 18 102 19 110 5z m-4679 -1651 c-5 -29 -18 -55 -40 -78 -47
-50 -115 -145 -170 -236 -26 -44 -64 -106 -84 -139 -80 -129 -178 -305 -233
-423 -33 -68 -59 -125 -59 -128 0 -2 -11 -27 -24 -56 -72 -158 -137 -326 -153
-393 -11 -51 -26 -85 -42 -101 -26 -26 -41 -31 -41 -13 0 21 51 294 67 354 75
298 278 699 475 940 45 55 298 315 307 315 2 0 1 -19 -3 -42z m7752 -130 c143
-145 208 -230 347 -448 128 -201 259 -530 309 -780 21 -104 46 -273 41 -278
-13 -13 -53 31 -64 69 -46 162 -122 370 -172 476 -32 68 -59 126 -59 129 0 17
-190 385 -234 454 -89 138 -245 373 -266 400 -22 28 -38 90 -23 90 5 0 59 -51
121 -112z m-7488 20 c560 -324 1326 -834 1706 -1135 304 -240 366 -294 520
-447 149 -149 203 -213 288 -341 88 -132 95 -155 73 -259 -32 -159 -136 -308
-247 -359 -85 -38 -369 -23 -675 37 -215 42 -681 176 -926 265 -30 11 -108 38
-174 61 -279 97 -948 371 -1260 514 -42 20 -78 36 -79 36 -2 0 -47 20 -100 45
l-96 45 37 38 c39 39 276 347 303 392 8 14 42 77 75 140 34 63 82 153 107 200
25 47 64 119 86 161 38 72 139 355 130 364 -3 3 -20 -32 -38 -78 -79 -195
-167 -379 -255 -537 -52 -94 -95 -175 -95 -180 0 -6 -4 -10 -8 -10 -5 0 -15
-12 -22 -27 -8 -16 -26 -46 -41 -68 -14 -22 -43 -67 -64 -100 -48 -75 -145
-194 -185 -229 -36 -30 -70 -34 -70 -9 0 9 22 42 48 72 82 95 198 256 255 353
137 234 264 473 312 589 59 141 175 481 175 511 0 23 26 34 44 19 8 -7 12 -28
10 -58 l-3 -48 14 35 c7 19 14 48 14 64 1 27 2 28 24 14 12 -8 65 -40 117 -70z
m7240 -9 c0 -40 82 -341 120 -439 16 -41 47 -112 69 -158 23 -45 41 -85 41
-88 0 -3 42 -88 92 -190 78 -155 120 -223 261 -422 92 -130 181 -249 197 -264
28 -26 28 -28 11 -37 -20 -11 -274 -121 -421 -182 -52 -22 -109 -46 -125 -54
-17 -8 -100 -41 -185 -75 -85 -34 -164 -65 -175 -70 -31 -15 -243 -95 -435
-164 -799 -290 -1382 -431 -1775 -430 -171 1 -185 5 -267 82 -36 34 -47 50
-43 66 3 12 2 15 -1 9 -10 -23 -19 -14 -58 65 -58 114 -58 113 -61 136 -26
165 -19 181 143 383 258 323 788 746 1542 1231 197 127 296 188 580 357 302
181 465 274 478 275 7 0 12 -13 12 -31z m91 -51 c23 -106 38 -151 134 -393 94
-240 136 -326 264 -548 148 -255 201 -336 284 -435 76 -91 89 -122 50 -122
-25 0 -33 7 -91 74 -248 284 -638 1069 -701 1410 -13 68 -5 98 22 94 17 -2 24
-17 38 -80z m-7643 -40 c-43 -133 -92 -254 -165 -408 -36 -74 -74 -155 -86
-180 -62 -133 -249 -441 -339 -560 -11 -14 -35 -47 -55 -74 -20 -28 -38 -45
-40 -40 -11 32 97 301 235 589 128 268 435 765 472 765 4 0 -6 -42 -22 -92z
m7836 -143 c190 -285 427 -769 530 -1083 15 -45 26 -87 24 -94 -5 -13 -73 74
-143 182 -27 41 -70 107 -96 146 -70 107 -315 606 -348 709 -16 50 -45 136
-65 192 -42 119 -46 151 -15 113 11 -14 62 -88 113 -165z m-3816 -1861 c143
-37 311 -170 379 -299 166 -314 43 -699 -272 -854 -120 -59 -293 -78 -420 -46
-310 79 -515 389 -462 699 47 268 256 475 521 516 63 10 182 3 254 -16z
m-1337 -802 c129 -74 241 -290 225 -431 -7 -62 -42 -129 -120 -230 -27 -36
-55 -73 -61 -80 -26 -37 -328 -333 -399 -391 -43 -36 -104 -87 -135 -113 -194
-168 -767 -575 -1126 -801 -33 -20 -94 -59 -135 -86 -41 -27 -106 -67 -145
-91 -38 -23 -119 -72 -180 -109 -222 -135 -434 -260 -443 -260 -5 0 -7 11 -5
25 3 13 -2 48 -11 77 -9 29 -37 125 -62 213 -41 144 -60 191 -198 470 -129
261 -168 330 -245 435 -50 69 -99 136 -109 149 -73 103 -45 47 53 -104 102
-158 254 -434 324 -587 184 -407 258 -652 204 -672 -23 -9 -28 -1 -47 79 -72
292 -286 767 -477 1055 -56 85 -105 157 -109 160 -4 3 -24 31 -45 63 -20 33
-61 87 -91 122 -54 64 -62 95 -24 95 10 0 50 -33 90 -72 l73 -73 -49 64 c-27
36 -61 77 -76 92 l-27 26 157 71 c419 188 904 388 1222 503 91 33 194 71 230
84 125 47 426 143 560 180 74 20 172 48 218 61 221 63 640 123 807 114 89 -5
106 -9 156 -38z m1127 -728 c12 -8 50 -20 84 -25 77 -12 172 -42 216 -69 49
-30 157 -209 187 -310 4 -14 11 -29 15 -35 4 -5 19 -46 33 -90 173 -539 297
-1351 362 -2370 17 -264 33 -618 29 -623 -1 -2 -13 3 -26 12 -21 14 -158 44
-423 92 -113 21 -696 31 -847 14 -258 -27 -450 -59 -486 -80 l-35 -21 7 133
c30 573 112 1340 197 1838 65 384 98 530 191 845 17 55 34 116 40 135 22 79
168 374 210 424 15 19 56 48 91 64 34 17 73 42 86 56 28 30 38 32 69 10z
m-4576 -337 c16 -15 31 -47 41 -89 28 -110 178 -481 270 -665 99 -199 382
-656 454 -734 25 -28 47 -95 33 -104 -10 -6 -212 203 -306 315 -113 135 -298
459 -377 660 -31 79 -91 291 -108 380 -6 36 -20 107 -30 157 -11 51 -19 95
-19 98 0 12 19 4 42 -18z m9151 -79 c-13 -55 -89 -263 -135 -368 -71 -163
-261 -540 -312 -619 -24 -36 -68 -106 -99 -156 -62 -99 -146 -209 -154 -202
-10 11 107 339 168 467 138 297 212 433 331 616 176 269 214 319 201 262z
m-8978 -124 c21 -33 50 -72 62 -88 69 -84 344 -599 408 -761 63 -159 136 -376
132 -388 -5 -15 -106 122 -184 249 -229 374 -441 825 -519 1104 -6 22 55 -48
101 -116z m4807 -2899 c167 -17 403 -58 455 -80 18 -8 36 -21 39 -30 13 -32
-11 -36 -97 -17 -46 11 -136 27 -199 37 -63 9 -137 21 -165 27 -27 5 -200 12
-383 15 -361 6 -466 -1 -712 -44 -224 -39 -210 -38 -210 -14 0 11 10 27 23 35
31 21 216 54 387 70 207 19 673 20 862 1z m-87 -110 c202 -16 443 -50 458 -65
38 -36 -614 -75 -963 -58 -231 11 -560 51 -560 67 0 25 425 68 695 70 94 0
260 -6 370 -14z"/>
<path d="M5908 9841 c-54 -9 -101 -20 -106 -26 -21 -23 -43 -155 -62 -365 -11
-124 -34 -371 -50 -550 -17 -179 -32 -341 -35 -360 -18 -122 -110 -1881 -101
-1907 16 -41 25 20 35 252 29 625 51 1066 56 1135 19 270 39 517 65 805 16
182 39 432 49 556 11 129 26 241 34 260 34 82 135 128 215 97 58 -22 61 26
-58 -963 -71 -588 -66 -552 -174 -1275 -65 -429 -89 -584 -112 -694 -26 -129
-29 -166 -14 -166 14 0 22 40 95 495 73 460 94 597 184 1245 113 811 174 1395
151 1455 -11 30 -30 31 -172 6z"/>
<path d="M4599 9823 c-11 -28 -8 -98 11 -264 25 -219 93 -750 121 -933 16
-111 38 -262 49 -336 43 -303 101 -682 120 -785 11 -60 42 -240 69 -400 59
-342 67 -387 82 -439 9 -33 13 -37 20 -23 7 11 3 44 -10 99 -19 79 -86 457
-130 733 -76 475 -133 860 -165 1105 -40 303 -68 526 -95 750 -17 135 -33 266
-37 292 -9 67 1 96 41 115 29 14 42 15 89 4 43 -10 62 -21 94 -55 44 -47 42
-40 67 -301 8 -88 26 -268 40 -400 71 -678 100 -1053 145 -1895 25 -458 28
-486 47 -466 4 4 -3 179 -15 389 -13 210 -29 492 -37 627 -8 135 -17 270 -20
300 -3 30 -12 156 -20 280 -9 124 -36 416 -60 650 -25 234 -52 490 -60 570
-17 162 -40 302 -56 349 -12 34 -15 35 -132 51 -127 16 -146 14 -158 -17z"/>
<path d="M5310 9813 c-165 -3 -175 -6 -188 -40 -28 -76 -34 -161 -27 -442 18
-822 54 -1429 135 -2291 38 -405 44 -440 70 -414 8 8 3 73 -14 215 -14 112
-32 296 -40 409 -27 344 -45 598 -56 755 -13 190 -38 993 -42 1356 -3 317 -8
301 88 338 91 35 204 23 265 -28 l34 -29 -3 -433 c-4 -739 -23 -1191 -77
-1849 -28 -351 -55 -695 -55 -717 0 -23 23 -32 34 -14 11 17 84 1000 127 1701
12 203 7 1330 -6 1420 -9 60 -20 70 -69 68 -22 -1 -102 -4 -176 -5z"/>
<path d="M1691 8116 c-17 -20 -89 -229 -84 -243 5 -14 117 -100 243 -187 213
-146 826 -549 960 -631 358 -219 554 -337 885 -533 539 -320 594 -352 611
-352 41 0 40 1 -521 330 -469 276 -749 445 -1013 614 -95 61 -188 120 -205
131 -18 11 -158 102 -312 203 -154 101 -297 195 -317 208 -141 90 -141 90
-179 129 -34 34 -44 77 -34 141 7 48 44 98 81 108 23 7 123 -58 609 -393 44
-30 123 -85 176 -121 206 -141 518 -361 692 -488 100 -74 306 -224 457 -335
151 -110 345 -256 430 -324 140 -111 181 -138 179 -115 -1 13 -744 574 -1079
815 -107 77 -248 179 -314 226 -331 240 -509 364 -783 545 -302 202 -438 286
-459 286 -6 0 -17 -6 -23 -14z"/>
<path d="M1404 7478 c-81 -161 -96 -199 -85 -215 5 -9 121 -83 193 -123 15 -8
89 -52 165 -96 163 -96 529 -277 913 -452 151 -68 354 -160 450 -204 96 -44
290 -127 430 -185 140 -58 296 -122 345 -143 284 -119 385 -154 385 -132 0 15
-37 33 -162 80 -124 47 -472 192 -653 272 -71 32 -200 88 -285 125 -287 124
-333 146 -982 468 -728 360 -683 331 -668 438 4 31 16 74 26 95 27 57 93 120
138 133 44 12 41 13 251 -104 72 -39 200 -109 285 -155 214 -115 621 -344 840
-473 96 -57 534 -329 965 -602 160 -100 293 -181 298 -178 17 10 4 32 -35 58
-318 211 -1386 870 -1588 980 -623 341 -1071 565 -1128 565 -17 0 -35 -28 -98
-152z"/>
<path d="M1164 7042 c-25 -17 -143 -204 -137 -218 3 -8 26 -25 52 -38 60 -31
349 -149 526 -216 77 -29 160 -61 185 -70 159 -60 325 -121 440 -160 19 -6
123 -42 230 -80 638 -223 649 -227 1130 -382 484 -156 490 -157 490 -140 0 5
-78 33 -172 62 -212 64 -861 282 -1343 450 -66 23 -190 68 -275 100 -85 32
-234 88 -330 124 -385 142 -737 277 -765 293 -39 22 -45 31 -38 68 14 78 93
145 170 145 14 0 71 -19 126 -41 56 -23 143 -56 192 -74 50 -18 146 -56 215
-85 69 -28 229 -94 355 -145 127 -51 294 -120 373 -154 78 -34 144 -61 147
-61 5 0 347 -154 715 -322 96 -44 274 -125 395 -180 121 -55 232 -105 247
-113 18 -8 30 -10 34 -4 3 6 4 12 2 14 -7 7 -247 120 -378 178 -69 30 -204 91
-300 135 -254 115 -251 114 -535 240 -411 181 -462 202 -785 332 -600 240
-895 350 -938 350 -9 0 -22 -4 -28 -8z"/>
<path d="M8925 8049 c-69 -36 -65 -33 -498 -321 -407 -270 -980 -668 -1355
-942 -107 -78 -203 -148 -215 -156 -12 -8 -92 -67 -177 -130 -86 -63 -195
-144 -243 -179 -48 -35 -87 -71 -87 -79 0 -19 16 -8 163 107 98 76 383 283
757 549 63 45 176 125 250 178 186 133 1324 892 1357 905 21 8 33 5 63 -15 62
-41 76 -138 31 -211 -20 -34 -118 -101 -451 -311 -318 -200 -360 -226 -545
-339 -88 -54 -205 -126 -260 -160 -102 -63 -250 -149 -565 -328 -596 -338
-782 -449 -772 -459 6 -6 74 27 183 90 96 54 255 145 354 202 230 131 418 240
800 465 288 170 1106 687 1223 773 117 86 172 133 172 145 -1 7 -20 64 -43
127 -49 134 -51 135 -142 89z"/>
<path d="M9150 7573 c-34 -12 -180 -80 -245 -114 -38 -20 -169 -87 -290 -149
-379 -194 -657 -342 -737 -392 -43 -26 -80 -48 -83 -48 -8 0 -667 -395 -960
-575 -60 -37 -162 -99 -225 -137 -141 -85 -180 -115 -180 -134 0 -22 14 -17
87 28 38 23 147 89 243 148 96 58 306 186 465 284 160 98 322 198 360 221 65
40 442 250 615 342 798 428 827 443 872 443 51 0 97 -36 142 -110 33 -55 40
-76 44 -136 4 -70 4 -70 -29 -99 -19 -15 -81 -50 -139 -77 -58 -28 -172 -81
-255 -120 -82 -39 -256 -121 -385 -183 -492 -236 -642 -302 -1245 -553 -394
-164 -486 -201 -594 -237 -101 -35 -135 -55 -118 -71 10 -10 46 3 652 243 319
126 479 194 800 337 17 8 125 55 240 106 236 103 449 203 830 391 270 132 375
200 375 242 0 11 -37 97 -82 189 -80 164 -82 168 -112 167 -17 0 -38 -3 -46
-6z"/>
<path d="M9410 6975 c-31 -8 -141 -47 -245 -89 -105 -41 -350 -136 -545 -211
-345 -133 -627 -246 -760 -305 -36 -16 -175 -76 -310 -134 -268 -115 -540
-232 -610 -264 -45 -20 -155 -68 -302 -132 -46 -20 -78 -40 -78 -48 0 -19 2
-18 220 78 984 434 1322 577 1855 783 94 36 269 105 390 152 361 143 392 147
472 62 38 -40 43 -51 43 -91 0 -37 -5 -49 -23 -61 -22 -14 -272 -106 -792
-291 -115 -41 -232 -83 -260 -94 -27 -10 -97 -35 -155 -55 -58 -21 -134 -48
-170 -60 -36 -13 -180 -60 -320 -105 -140 -45 -280 -90 -310 -100 -146 -50
-554 -178 -714 -225 -102 -29 -182 -57 -184 -65 -6 -16 6 -14 218 51 724 222
1658 529 2085 684 132 47 303 109 380 137 269 97 396 161 379 191 -4 7 -36 56
-72 110 -63 93 -67 97 -101 96 -20 0 -61 -7 -91 -14z"/>
<path d="M5220 6054 c-101 -24 -201 -93 -272 -187 -61 -80 -88 -158 -95 -272
-9 -158 35 -276 146 -386 133 -132 301 -176 486 -129 175 45 306 174 355 351
33 121 21 250 -35 365 -35 71 -143 183 -211 217 -109 55 -253 71 -374 41z"/>
<path d="M4005 5360 c-11 -5 -166 -54 -345 -111 -417 -131 -598 -190 -1015
-334 -187 -64 -385 -132 -440 -150 -55 -18 -161 -56 -235 -83 -74 -28 -205
-76 -290 -107 -85 -31 -193 -71 -240 -90 -47 -18 -116 -45 -155 -60 -125 -49
-255 -113 -261 -130 -7 -18 117 -212 142 -222 36 -14 220 49 709 242 61 24
207 82 325 128 118 47 312 126 430 177 118 51 267 115 330 142 63 27 153 67
200 88 104 47 330 148 528 236 81 36 170 76 198 89 27 13 88 40 135 61 92 40
111 52 104 64 -5 9 -53 -11 -445 -187 -80 -36 -167 -76 -195 -88 -27 -13 -70
-32 -95 -43 -614 -274 -804 -355 -1465 -619 -269 -107 -503 -201 -520 -208
-82 -36 -152 -24 -210 35 -31 31 -39 48 -42 87 -5 44 -3 51 20 66 106 69 2150
789 2717 957 96 29 179 56 185 61 12 11 -43 11 -70 -1z"/>
<path d="M4065 5146 c-60 -23 -193 -77 -295 -118 -102 -42 -257 -105 -345
-141 -166 -68 -180 -74 -640 -279 -523 -234 -1158 -540 -1361 -657 -68 -39
-114 -87 -114 -117 0 -24 151 -338 168 -348 11 -7 131 12 152 23 8 4 80 44
160 88 168 93 464 253 700 378 91 49 212 115 270 148 304 174 1447 880 1485
917 14 14 16 23 8 31 -7 7 -136 -68 -449 -264 -793 -495 -1040 -640 -1579
-930 -88 -47 -252 -135 -365 -196 -113 -61 -215 -111 -228 -111 -28 0 -82 27
-102 51 -8 9 -22 26 -30 36 -54 64 -78 206 -42 248 9 11 172 98 362 192 721
358 988 483 1530 715 474 204 543 232 695 288 132 48 160 64 149 82 -7 12 -9
11 -129 -36z"/>
<path d="M4225 4898 c-141 -83 -334 -197 -515 -303 -232 -135 -388 -228 -465
-275 -33 -21 -177 -108 -320 -194 -143 -87 -339 -209 -435 -271 -96 -62 -227
-147 -290 -188 -63 -41 -160 -104 -215 -139 -55 -36 -139 -90 -187 -120 -83
-53 -136 -95 -186 -150 l-22 -24 44 -120 c34 -94 48 -120 64 -122 30 -5 140
54 287 153 492 332 636 431 1010 698 231 165 443 316 470 336 28 21 84 62 125
93 236 173 750 559 755 568 14 23 -35 7 -71 -23 -93 -79 -331 -258 -664 -499
-80 -57 -244 -176 -365 -264 -121 -88 -285 -204 -365 -259 -80 -54 -174 -119
-210 -144 -385 -269 -826 -561 -856 -566 -43 -9 -82 28 -99 93 -26 99 5 145
166 253 291 194 1146 734 1354 855 222 129 665 388 845 494 91 53 180 105 199
116 32 18 43 36 24 41 -4 1 -39 -16 -78 -39z"/>
<path d="M5266 4453 c-18 -84 -109 -1087 -130 -1438 -14 -225 -28 -444 -31
-485 -6 -90 -12 -244 -25 -700 -9 -294 -8 -357 4 -429 10 -55 21 -88 33 -96
12 -9 78 -15 202 -20 227 -9 215 -16 227 142 13 177 10 1253 -4 1483 -60 945
-104 1544 -115 1558 -12 15 -37 16 -37 1 0 -6 5 -63 10 -127 11 -128 64 -837
80 -1077 18 -264 30 -675 37 -1243 l6 -552 -24 -26 c-56 -62 -172 -82 -275
-48 -56 19 -82 39 -95 73 -6 14 -2 271 11 665 21 670 31 881 55 1181 8 99 20
243 26 320 26 344 41 500 60 632 21 148 22 204 2 210 -6 2 -14 -9 -17 -24z"/>
<path d="M5126 4393 c-6 -82 -19 -284 -36 -593 -24 -437 -67 -970 -120 -1490
-17 -157 -34 -332 -40 -390 -6 -58 -17 -152 -25 -210 -8 -58 -16 -133 -19
-168 -8 -89 -36 -139 -93 -164 -52 -23 -95 -26 -136 -10 -40 17 -49 51 -38
141 6 42 24 182 41 311 57 435 120 904 135 1000 85 568 189 1187 246 1469 33
162 34 174 17 169 -14 -5 -19 -27 -54 -228 -13 -80 -29 -167 -34 -195 -73
-403 -122 -693 -176 -1045 -35 -234 -76 -497 -89 -585 -14 -88 -48 -333 -76
-545 -52 -391 -65 -578 -42 -601 10 -10 37 -10 130 0 65 7 125 17 134 22 26
14 58 162 74 349 9 96 25 249 35 340 47 398 81 726 90 865 6 83 17 233 25 335
8 102 19 262 25 355 11 176 32 494 51 767 5 87 7 162 4 168 -15 24 -23 5 -29
-67z"/>
<path d="M5548 4458 c-2 -7 -1 -94 3 -193 13 -322 38 -878 44 -945 3 -36 10
-157 15 -270 14 -279 24 -413 71 -925 22 -242 44 -487 49 -545 13 -144 35
-267 54 -295 13 -20 28 -24 118 -35 148 -17 149 -17 161 2 16 24 -4 280 -58
748 -35 306 -157 1251 -180 1395 -3 17 -36 233 -75 480 -89 576 -91 586 -104
582 -15 -6 -12 -40 17 -197 14 -74 39 -227 56 -340 91 -614 153 -1049 175
-1240 55 -465 136 -1212 136 -1254 0 -36 -5 -49 -22 -60 -58 -37 -133 -27
-189 27 -58 54 -51 6 -114 762 -23 272 -53 656 -64 835 -15 226 -59 1196 -65
1419 -1 50 -18 79 -28 49z"/>
<path d="M6490 5176 c0 -15 24 -25 235 -101 153 -55 1211 -509 1415 -608 725
-350 1065 -518 1088 -540 18 -17 22 -31 22 -83 0 -50 -6 -73 -31 -120 -38 -74
-64 -102 -113 -125 -38 -17 -41 -17 -90 2 -27 10 -85 39 -128 64 -43 25 -80
45 -84 45 -5 0 -212 111 -594 318 -36 19 -189 105 -340 190 -270 151 -390 223
-780 467 -391 244 -639 395 -649 395 -33 0 -1 -37 72 -84 541 -349 1434 -880
1792 -1066 77 -40 250 -130 385 -201 358 -188 493 -245 526 -222 22 16 165
326 162 352 -3 26 -37 53 -126 103 -22 13 -91 51 -151 86 -250 142 -1305 630
-1751 810 -69 28 -249 100 -400 162 -434 176 -460 185 -460 156z"/>
<path d="M6370 4931 c0 -5 91 -62 203 -126 111 -65 243 -142 292 -170 50 -29
230 -134 400 -233 370 -214 520 -305 800 -482 532 -338 856 -548 882 -572 34
-32 46 -134 21 -183 -20 -39 -52 -65 -79 -65 -40 0 -909 581 -1529 1024 -542
386 -717 515 -890 651 -96 76 -119 90 -132 77 -7 -7 -3 -14 14 -24 24 -13 150
-106 582 -428 121 -91 282 -208 356 -260 74 -52 187 -132 250 -177 63 -45 138
-98 165 -117 28 -19 122 -86 210 -148 88 -63 282 -195 430 -294 249 -166 314
-208 540 -347 122 -75 121 -75 174 71 l44 123 -29 30 c-40 43 -194 151 -414
292 -102 65 -250 160 -330 212 -380 246 -749 468 -1480 892 -431 249 -455 263
-469 263 -6 0 -11 -4 -11 -9z"/>
<path d="M7710 10395 c-36 -7 -80 -13 -97 -14 -23 -1 -37 -8 -49 -27 -22 -33
-6 -45 45 -33 78 18 78 20 4 -123 -37 -73 -68 -135 -70 -137 -1 -2 -17 2 -34
8 -35 12 -99 -1 -99 -20 0 -12 59 -39 171 -79 66 -24 84 -27 109 -18 17 5 30
14 30 18 0 13 -42 40 -62 40 -9 0 -19 4 -22 9 -3 4 37 91 89 193 52 102 92
188 88 191 -8 9 -21 7 -103 -8z"/>
<path d="M7996 10214 c-64 -23 -105 -54 -131 -98 -32 -54 -34 -125 -5 -166 36
-50 129 -73 208 -51 17 5 32 6 32 2 0 -10 -88 -93 -126 -119 -50 -34 -105 -38
-158 -12 -25 12 -55 33 -66 47 -16 21 -25 24 -53 19 -18 -3 -42 -13 -53 -21
-19 -15 -18 -16 6 -36 38 -33 123 -69 177 -76 57 -6 150 15 220 51 189 96 267
315 151 423 -53 50 -129 64 -202 37z m131 -81 c25 -30 31 -99 13 -134 -26 -48
-118 -64 -163 -29 -50 40 -44 137 11 181 39 30 108 22 139 -18z"/>
<path d="M8505 10125 c-22 -8 -51 -26 -64 -41 -20 -24 -23 -35 -19 -90 4 -68
0 -74 -50 -74 -36 -1 -102 -32 -128 -61 -49 -55 -50 -133 -3 -193 67 -85 230
-91 315 -11 36 35 37 35 31 97 -3 35 -9 73 -12 84 -6 19 -2 22 31 29 99 18
151 73 141 149 -4 31 -15 49 -43 73 -59 52 -125 64 -199 38z m114 -61 c42 -35
43 -84 2 -125 -17 -16 -40 -29 -54 -29 -21 0 -28 8 -41 47 -20 59 -20 97 0
117 23 23 58 19 93 -10z m-147 -245 c9 -30 17 -71 17 -91 2 -92 -101 -107
-156 -23 -31 46 -30 95 1 124 25 23 93 52 111 47 5 -1 17 -27 27 -57z"/>
<path d="M2775 10051 c-79 -36 -124 -107 -111 -176 9 -45 43 -71 130 -97 65
-20 116 -53 116 -77 0 -21 -53 -51 -90 -51 -34 0 -38 -3 -53 -42 -10 -23 -13
-46 -8 -51 16 -16 100 15 145 54 74 66 87 176 24 222 -14 11 -61 31 -104 46
-42 14 -82 33 -87 43 -16 24 9 48 49 48 29 0 36 5 49 37 27 63 10 76 -60 44z"/>
<path d="M2485 9877 c-41 -41 -57 -96 -56 -196 0 -152 65 -251 165 -251 75 0
141 101 134 207 -3 40 -6 48 -23 48 -17 0 -21 -8 -25 -54 -5 -42 -12 -58 -33
-77 -34 -29 -48 -30 -78 -5 -22 18 -23 22 -10 43 72 114 84 237 29 295 -30 32
-64 29 -103 -10z"/>
<path d="M8800 9823 c-45 -17 -30 -53 22 -53 57 0 98 -31 98 -75 0 -76 -97
-107 -181 -58 -20 12 -35 13 -64 7 -21 -5 -40 -14 -42 -20 -2 -6 14 -23 36
-38 89 -62 115 -144 62 -197 -49 -48 -107 -36 -182 37 -43 42 -49 45 -83 38
-56 -10 -57 -31 -3 -80 110 -99 296 -100 371 -2 30 41 35 102 11 148 l-16 30
38 0 c100 0 169 52 160 121 -3 20 -12 48 -22 62 -29 45 -162 96 -205 80z"/>
<path d="M2065 9802 c-148 -61 -301 -207 -341 -326 -30 -90 -2 -198 70 -265
23 -22 28 -23 40 -10 7 8 16 33 19 57 5 38 2 46 -20 65 -45 39 -53 48 -59 73
-8 31 19 104 49 133 l23 21 49 -77 c26 -43 72 -117 102 -164 30 -47 56 -102
60 -122 5 -33 3 -38 -25 -54 -33 -19 -42 -38 -42 -90 0 -25 4 -33 18 -33 30 0
193 114 260 181 88 89 124 166 130 273 13 243 -154 412 -333 338z m126 -115
c77 -47 130 -139 137 -238 6 -87 -18 -133 -108 -200 -36 -27 -68 -49 -71 -49
-4 0 -9 18 -12 41 -5 37 -56 130 -178 324 -45 70 -43 74 46 117 75 35 135 37
186 5z"/>
<path d="M15255 8510 c-254 -15 -316 -20 -590 -56 -168 -21 -674 -137 -853
-195 -290 -94 -625 -252 -842 -397 -454 -304 -713 -656 -806 -1095 -22 -104
-26 -154 -29 -337 -4 -229 4 -320 44 -460 61 -219 131 -342 275 -486 162 -162
360 -252 594 -270 45 -4 82 -10 82 -13 -1 -3 -31 -28 -67 -56 -37 -27 -99 -74
-137 -103 -262 -198 -399 -256 -726 -309 -131 -21 -681 -24 -825 -5 -49 7
-127 18 -173 24 -45 6 -85 9 -88 5 -3 -3 14 -43 37 -89 78 -149 247 -298 433
-383 95 -43 239 -89 346 -110 114 -22 398 -31 525 -16 367 43 641 166 876 391
43 41 107 100 141 130 35 30 84 80 109 110 42 50 58 60 180 114 181 80 694
323 917 435 100 50 182 88 182 83 0 -4 -11 -41 -24 -82 -34 -105 -54 -210 -68
-356 -25 -268 33 -511 158 -651 177 -200 482 -271 696 -162 l39 20 -29 37
c-40 50 -97 164 -116 232 -94 326 -43 714 181 1380 l29 85 95 64 c138 93 344
241 508 363 80 59 146 106 149 104 2 -3 -17 -65 -43 -138 -89 -247 -303 -902
-359 -1093 -110 -378 -141 -541 -125 -666 12 -97 42 -159 103 -217 84 -80 150
-106 304 -122 91 -10 122 -2 122 29 0 29 8 30 73 2 58 -24 73 -26 212 -26 129
0 160 3 224 23 354 112 621 405 755 833 62 196 80 330 73 552 -5 180 -21 265
-68 373 -27 61 -85 139 -133 182 -140 123 -388 131 -633 21 -35 -15 -63 -26
-63 -23 0 9 123 306 195 469 91 208 314 665 400 821 68 122 186 325 267 458
44 70 78 129 76 131 -18 13 -157 29 -253 29 -182 -1 -307 -43 -430 -142 -129
-104 -200 -224 -344 -587 l-79 -200 -84 -68 c-198 -163 -326 -265 -378 -301
-30 -21 -57 -42 -60 -46 -9 -13 -251 -192 -255 -188 -8 8 197 461 292 646 253
490 392 682 659 905 71 60 130 115 132 122 3 12 -65 40 -208 84 -447 137
-1125 218 -1595 191z m455 -235 c97 -14 160 -30 160 -42 0 -6 -152 -219 -312
-438 -275 -376 -594 -777 -853 -1073 l-70 -80 -3 42 c-5 87 -24 184 -48 256
-33 96 -47 122 -100 192 -121 157 -264 222 -489 222 -189 -1 -329 -45 -432
-138 -48 -43 -113 -151 -113 -187 0 -13 23 -29 77 -56 96 -47 221 -164 254
-239 31 -68 37 -184 14 -255 -64 -194 -269 -439 -437 -521 -197 -97 -354 -66
-499 98 -189 214 -223 595 -81 907 58 126 168 270 282 370 37 32 78 68 91 80
54 49 170 138 264 203 486 338 1010 559 1510 639 55 8 125 19 155 24 95 15
514 12 630 -4z m-236 -1386 c-146 -312 -210 -456 -341 -769 -36 -85 -70 -161
-75 -167 -6 -7 -47 -32 -92 -57 -137 -74 -647 -329 -651 -325 -2 3 37 51 87
109 49 58 100 116 111 130 30 35 390 465 436 520 41 49 173 213 384 475 75 94
142 177 150 185 7 8 27 34 43 57 16 23 30 38 32 34 1 -4 -36 -90 -84 -192z
m1776 -946 c152 -139 2 -839 -263 -1226 -96 -141 -241 -257 -321 -257 -175 0
-210 316 -78 716 122 370 365 714 551 780 54 20 78 17 111 -13z"/>
<path d="M18649 7884 c-112 -34 -180 -173 -279 -567 -45 -180 -48 -218 -20
-265 11 -18 20 -39 20 -47 0 -19 -1 -19 137 1 97 14 132 15 228 5 62 -6 132
-18 155 -26 24 -8 44 -15 46 -15 2 0 4 17 4 38 0 42 -28 109 -56 134 -41 36
-171 51 -318 38 l-68 -6 6 53 c12 106 174 560 225 632 12 16 21 32 21 35 0 10
-53 5 -101 -10z"/>
<path d="M19980 7711 c-89 -28 -176 -90 -185 -133 -4 -17 -28 -53 -53 -80 -52
-56 -47 -70 22 -66 l39 3 28 -70 c47 -116 35 -212 -34 -267 -60 -48 -139 -3
-156 87 -10 54 -3 81 28 109 30 28 26 36 -18 36 -59 0 -87 -14 -100 -51 -26
-76 -2 -180 57 -243 70 -74 209 -90 318 -36 132 65 156 166 88 380 -19 62 -33
122 -30 134 3 11 26 46 51 76 53 64 62 87 44 105 -19 17 -68 25 -99 16z"/>
<path d="M19240 7619 c-65 -23 -140 -92 -176 -162 -82 -159 -67 -381 29 -449
25 -18 45 -23 97 -23 58 0 71 4 121 37 65 44 111 98 149 177 34 68 60 180 60
256 0 70 -37 148 -80 170 -40 21 -133 18 -200 -6z m63 -204 c27 -27 43 -35 71
-35 41 0 41 1 20 -71 -22 -74 -67 -150 -114 -193 -46 -42 -60 -44 -86 -15 -16
17 -19 35 -17 98 0 42 8 96 17 121 16 43 63 130 70 130 2 0 20 -16 39 -35z"/>
<path d="M25924 7540 c-74 -24 -205 -118 -350 -252 -238 -220 -387 -455 -439
-691 -41 -186 -123 -377 -234 -546 -66 -100 -70 -116 -32 -162 42 -52 194 -12
260 68 16 19 33 33 39 29 5 -3 17 -31 27 -63 10 -32 35 -94 55 -138 222 -476
280 -648 280 -824 0 -75 -6 -111 -24 -162 -42 -119 -130 -230 -218 -275 -122
-62 -277 0 -347 140 -28 58 -43 171 -32 249 18 127 70 206 164 247 26 11 47
25 47 29 0 13 -98 40 -167 47 -82 9 -173 -11 -225 -48 -45 -33 -88 -115 -107
-206 -18 -86 -14 -268 8 -333 67 -199 209 -350 401 -427 168 -67 314 -78 495
-37 420 95 627 412 545 835 -57 298 -131 507 -309 870 -49 102 -102 220 -116
264 -95 286 -4 482 436 931 227 232 280 301 283 369 1 27 -4 34 -46 54 -111
55 -277 69 -394 32z"/>
<path d="M21833 6690 c-62 -13 -118 -45 -154 -88 -28 -34 -118 -237 -119 -269
-1 -38 258 -67 353 -39 97 28 122 56 179 191 27 66 51 129 51 140 2 14 -10 26
-43 42 -52 25 -197 38 -267 23z"/>
<path d="M18775 6184 c-280 -50 -507 -205 -673 -458 -48 -74 -127 -240 -156
-332 -140 -431 -92 -876 115 -1070 57 -54 103 -79 164 -92 219 -48 428 4 615
152 25 20 48 36 52 36 4 0 15 -14 24 -32 37 -71 129 -134 229 -156 66 -15 182
-19 194 -7 5 6 11 116 14 245 4 216 7 247 35 377 17 78 74 279 128 445 53 167
99 312 102 323 2 11 45 134 95 274 85 242 89 255 71 268 -51 37 -219 48 -316
19 -60 -17 -138 -78 -164 -128 l-15 -29 -42 44 c-60 63 -115 96 -198 118 -84
22 -162 23 -274 3z m215 -410 c126 -75 98 -424 -60 -760 -158 -336 -392 -551
-503 -464 -46 37 -62 99 -62 250 0 201 44 380 140 571 88 173 230 334 345 388
74 35 100 38 140 15z"/>
<path d="M20090 6176 c-96 -25 -155 -79 -190 -173 -79 -208 -259 -760 -323
-988 -80 -284 -100 -402 -86 -501 22 -158 123 -257 296 -290 96 -18 147 -18
163 1 9 11 13 74 15 217 3 295 24 413 145 788 53 164 66 193 113 257 65 89
114 143 128 143 6 0 25 12 43 27 42 36 124 73 162 73 65 0 84 -64 55 -185 -10
-44 -44 -152 -74 -240 -82 -236 -100 -331 -102 -555 -3 -203 10 -323 46 -445
19 -65 32 -88 77 -136 36 -39 75 -69 117 -89 62 -30 65 -30 229 -30 91 0 166
2 166 5 0 2 -18 28 -40 57 -102 133 -150 296 -150 513 0 224 29 359 175 819
68 217 76 250 82 346 7 123 -5 187 -45 250 -56 85 -206 123 -338 85 -79 -22
-241 -98 -338 -157 -54 -34 -76 -43 -71 -31 3 10 15 43 25 73 10 30 26 72 34
92 16 36 15 38 -6 52 -54 35 -218 47 -308 22z"/>
<path d="M21602 6173 c-59 -18 -128 -73 -154 -124 -26 -51 -163 -447 -267
-774 -106 -331 -170 -598 -171 -705 0 -164 112 -305 270 -339 70 -15 185 -14
198 2 5 7 12 106 15 232 6 300 22 380 158 810 59 187 246 742 275 818 19 48
19 49 -1 63 -10 8 -35 19 -55 24 -52 15 -208 11 -268 -7z"/>
<path d="M24044 6180 c-129 -18 -339 -109 -434 -187 -270 -223 -424 -532 -465
-933 -14 -134 -15 -179 -5 -261 23 -200 74 -326 172 -421 99 -98 193 -131 368
-131 213 0 369 64 520 213 70 70 170 204 170 229 0 6 15 34 34 63 75 118 151
296 195 458 68 251 70 559 4 715 -25 59 -88 146 -128 178 -75 59 -138 79 -259
83 -61 1 -138 -1 -172 -6z m-94 -622 c26 -59 83 -123 138 -155 37 -22 59 -28
112 -28 36 0 78 4 93 8 28 8 29 7 22 -25 -26 -127 -64 -229 -141 -383 -157
-313 -309 -460 -439 -424 -24 7 -38 21 -58 57 -91 168 -42 499 121 817 29 56
116 175 128 175 3 0 14 -19 24 -42z"/>
<path d="M22705 6158 c-217 -15 -419 -111 -586 -277 -190 -190 -308 -434 -365
-756 -14 -78 -19 -344 -9 -415 36 -233 122 -385 261 -455 50 -25 68 -29 181
-33 192 -7 336 34 493 142 148 101 270 287 270 412 0 37 -5 51 -30 76 -17 16
-34 28 -39 26 -5 -2 -30 -32 -57 -67 -106 -140 -342 -292 -458 -295 -52 -1
-60 2 -85 30 -75 83 -68 342 17 614 64 207 219 443 350 531 116 78 183 90 232
41 42 -42 55 -100 55 -242 l0 -125 52 -3 c136 -8 218 113 230 338 9 161 -20
243 -121 348 -95 99 -187 125 -391 110z"/>
<path d="M24708 3694 c-111 -34 -220 -183 -254 -344 -16 -80 -24 -90 -67 -90
-31 0 -95 -30 -145 -67 -55 -41 -120 -139 -143 -214 -12 -38 -25 -69 -29 -69
-5 0 -19 -18 -31 -40 -19 -34 -53 -60 -64 -48 -2 2 31 259 52 389 5 32 2 38
-18 44 -38 12 -141 7 -187 -9 -150 -53 -262 -223 -262 -398 0 -56 24 -106 57
-119 46 -17 108 13 191 97 l74 72 -7 -68 c-6 -61 -5 -70 14 -89 16 -16 28 -20
49 -15 32 8 98 58 113 85 12 24 29 25 29 2 0 -31 37 -80 65 -87 42 -11 122 34
189 104 32 33 60 60 62 60 3 0 2 -26 -2 -59 -11 -96 23 -128 94 -92 22 11 54
38 72 61 17 22 35 40 40 40 4 0 10 -13 13 -28 3 -15 17 -40 32 -54 60 -60 163
-40 254 51 80 80 123 168 129 265 7 119 -27 182 -105 193 -69 9 -121 -13 -188
-80 -64 -64 -105 -136 -127 -222 -7 -27 -20 -57 -28 -66 -8 -9 -28 -33 -44
-53 -45 -59 -50 -38 -31 125 9 79 21 187 26 239 35 344 65 403 199 401 53 0
59 2 94 38 21 22 35 44 32 50 -10 15 -92 12 -148 -5z m-813 -514 c26 -10 27
-12 20 -63 -18 -142 -173 -335 -230 -287 -19 16 -20 116 -1 187 37 138 116
199 211 163z m519 -3 c17 -13 18 -19 7 -82 -20 -112 -91 -224 -165 -259 -60
-28 -69 -17 -64 89 3 79 8 101 37 159 22 44 44 74 64 87 37 22 95 25 121 6z
m481 -11 c29 -30 39 -78 33 -166 -12 -162 -130 -254 -201 -158 -15 21 -20 44
-21 105 -1 98 18 165 59 209 41 43 93 47 130 10z"/>
<path d="M19585 3688 c-51 -18 -129 -83 -168 -140 -39 -56 -86 -175 -87 -218
-1 -48 -11 -70 -35 -70 -12 0 -47 -8 -76 -17 -98 -32 -221 -174 -244 -283 -4
-19 -19 -49 -34 -67 -14 -17 -34 -43 -44 -57 -15 -22 -47 -36 -47 -22 0 3 11
80 25 173 43 285 43 259 5 267 -83 16 -175 -2 -251 -50 -75 -47 -158 -166
-175 -249 -6 -32 -80 -135 -101 -143 -9 -2 -13 7 -13 27 0 36 35 292 51 369 6
30 9 55 7 58 -3 2 -26 -3 -51 -12 -51 -17 -49 -13 -67 -129 -14 -91 -58 -181
-123 -249 -39 -42 -60 -56 -80 -56 -15 0 -30 6 -33 14 -3 7 3 91 14 186 10 95
17 184 14 197 -2 13 -15 31 -28 39 -20 14 -26 14 -58 -1 -50 -24 -128 -110
-124 -137 5 -33 21 -31 45 7 13 19 32 39 43 45 18 10 20 8 20 -22 0 -18 -7
-110 -17 -204 -16 -162 -16 -173 0 -198 36 -55 123 -21 229 88 30 31 56 56 59
56 3 0 2 -26 -2 -57 -17 -128 51 -152 150 -52 l49 50 7 -33 c10 -46 42 -78 78
-78 48 0 98 31 171 105 l69 70 -8 -64 c-9 -83 4 -111 53 -111 29 0 44 9 90 55
30 30 56 55 57 55 2 0 6 -15 9 -33 21 -115 130 -98 263 41 l54 57 -7 -62 c-8
-79 9 -113 58 -113 26 0 43 11 90 60 l59 60 9 -26 c6 -14 10 -29 10 -33 0 -21
53 -54 94 -58 98 -11 201 64 272 200 33 62 38 83 42 153 7 130 -33 188 -127
188 -114 -1 -245 -131 -288 -286 -9 -34 -22 -67 -28 -73 -6 -5 -23 -29 -38
-52 -26 -41 -57 -57 -57 -30 0 62 73 636 86 673 28 85 76 119 155 112 45 -5
50 -3 89 37 22 23 37 44 34 48 -11 10 -115 7 -149 -5z m-812 -513 c34 -7 36
-35 7 -128 -35 -114 -143 -234 -202 -225 -21 3 -23 9 -26 73 -6 128 58 264
131 283 32 9 38 8 90 -3z m516 0 c22 -7 23 -10 16 -62 -4 -31 -13 -74 -21 -97
-33 -93 -133 -200 -183 -194 -26 3 -26 3 -25 98 0 76 4 105 23 146 26 59 66
101 107 114 29 8 38 8 83 -5z m480 -8 c67 -56 48 -276 -30 -342 -52 -43 -116
-31 -140 27 -18 42 -18 171 0 221 15 44 56 95 85 108 24 9 64 3 85 -14z"/>
<path d="M17020 3490 c-96 -21 -184 -89 -227 -174 -23 -45 -27 -69 -34 -207
-12 -224 -39 -279 -138 -279 -37 0 -56 -7 -89 -31 -69 -51 -66 -52 128 -68
362 -30 400 -26 494 46 57 44 72 64 63 86 -5 14 -15 11 -62 -18 -68 -40 -122
-49 -252 -40 -140 9 -139 9 -103 53 53 67 62 104 70 282 9 177 20 225 61 254
29 20 69 20 116 1 l37 -16 44 45 c41 40 43 45 26 54 -29 15 -95 21 -134 12z"/>
<path d="M22295 3466 c-31 -21 -59 -49 -74 -77 -74 -138 -237 -419 -242 -419
-3 0 -16 28 -28 63 -13 34 -38 101 -57 149 -39 98 -74 226 -74 270 l0 28 -77
0 c-43 0 -100 -7 -128 -15 -107 -33 -202 -128 -225 -226 -12 -49 -9 -137 6
-160 4 -7 25 8 54 36 l47 46 -12 47 c-26 101 19 162 133 182 36 6 69 7 73 3 5
-5 -7 -101 -26 -213 -19 -113 -38 -221 -41 -241 -3 -20 -16 -54 -28 -75 -19
-34 -27 -39 -62 -42 -31 -2 -49 -11 -74 -37 -19 -19 -31 -38 -27 -41 4 -4 59
-9 124 -11 l118 -5 34 36 c37 38 35 41 -29 50 -19 2 -36 5 -38 5 -2 1 6 13 17
28 28 35 46 101 71 258 11 71 23 131 25 133 2 3 9 -6 14 -19 5 -13 27 -69 49
-124 43 -105 92 -264 92 -296 0 -11 6 -19 13 -19 26 0 76 67 120 160 51 106
161 295 178 306 8 5 10 -20 5 -92 -10 -142 -12 -421 -4 -429 7 -7 164 20 206
36 17 7 30 4 52 -13 36 -26 100 -28 151 -4 43 20 135 108 145 138 4 12 0 26
-9 35 -13 14 -16 13 -27 -8 -35 -69 -111 -110 -164 -90 -26 11 -56 57 -56 88
0 12 18 26 56 42 71 31 156 108 184 167 26 53 23 117 -7 139 -24 19 -78 19
-119 -1 -51 -24 -139 -125 -176 -202 -29 -59 -32 -77 -33 -152 0 -47 -4 -88
-10 -92 -18 -13 -62 -8 -76 8 -24 29 -6 515 24 667 4 21 -20 14 -68 -17z m383
-298 c24 -24 14 -78 -21 -113 -38 -38 -111 -65 -128 -48 -16 16 16 105 51 143
30 32 76 40 98 18z"/>
<path d="M13627 3459 c-87 -20 -170 -81 -214 -157 -22 -36 -27 -61 -30 -126
-5 -110 3 -120 62 -71 40 32 46 42 41 64 -3 14 -8 46 -12 71 -10 83 48 135
162 147 30 3 54 3 54 0 0 -4 -16 -150 -35 -324 -50 -449 -66 -492 -185 -501
-57 -4 -61 -3 -95 31 -19 19 -38 49 -41 66 -4 17 -11 31 -16 31 -10 0 -98 -60
-98 -67 0 -15 34 -65 59 -86 98 -82 270 -50 366 68 57 71 80 149 105 365 11
102 28 239 37 305 8 66 18 137 20 158 l5 37 -73 -1 c-41 -1 -91 -5 -112 -10z"/>
<path d="M20945 3451 c-81 -36 -156 -153 -171 -265 -6 -41 -7 -42 -57 -54 -64
-15 -107 -44 -152 -103 -45 -60 -66 -119 -68 -195 -2 -74 17 -104 68 -104 34
0 64 19 128 79 l37 35 0 -45 c0 -81 45 -92 115 -28 l44 40 11 -23 c42 -82 144
-76 225 13 32 36 47 79 26 79 -5 0 -27 -18 -49 -40 -45 -45 -80 -52 -112 -20
-33 33 -25 57 23 78 56 25 111 73 131 116 19 40 21 97 4 114 -18 18 -79 14
-115 -7 -45 -28 -112 -121 -132 -183 -17 -55 -67 -138 -82 -138 -5 0 -9 8 -9
18 0 50 50 455 61 490 18 61 49 86 110 88 51 1 99 31 99 61 0 20 -87 16 -135
-6z m-202 -383 c13 -11 14 -21 7 -61 -13 -66 -37 -113 -81 -159 -27 -28 -44
-39 -61 -36 -22 3 -23 7 -22 73 0 51 6 81 22 112 37 71 94 101 135 71z"/>
<path d="M13942 3253 c-46 -23 -124 -111 -120 -137 4 -31 24 -26 50 14 13 19
31 36 41 38 22 4 22 -35 1 -233 -15 -131 -15 -155 -3 -180 31 -66 122 -35 230
76 l66 67 -5 -74 c-5 -83 4 -104 48 -104 29 0 99 45 124 81 18 26 17 26 34
-23 l13 -37 -50 -52 c-76 -78 -103 -130 -109 -209 -3 -51 0 -76 13 -104 60
-126 249 -121 394 10 111 101 133 165 151 436 10 153 16 220 36 375 l7 52 -38
7 c-170 32 -357 -98 -412 -286 -24 -83 -90 -176 -111 -155 -7 6 12 155 39 323
11 68 19 126 16 128 -2 2 -24 -3 -50 -12 -36 -12 -47 -21 -51 -42 -2 -15 -10
-58 -17 -97 -6 -38 -24 -95 -39 -125 -54 -108 -160 -201 -189 -166 -11 13 -8
54 18 291 12 101 6 134 -26 146 -29 11 -21 12 -61 -8z m792 -80 c17 -5 18 -12
12 -67 -8 -82 -55 -173 -122 -236 -39 -37 -60 -50 -83 -50 -26 0 -31 4 -36 34
-10 50 12 171 40 224 34 65 47 80 86 96 31 14 51 13 103 -1z m-16 -395 c-16
-231 -35 -307 -92 -365 -71 -70 -168 -71 -237 -2 -35 35 -39 44 -39 89 0 93
79 212 148 224 52 8 125 58 175 121 23 29 44 51 47 49 3 -1 2 -53 -2 -116z"/>
<path d="M15125 3261 c-119 -30 -243 -200 -253 -347 -8 -126 36 -194 124 -194
59 0 103 20 160 72 100 91 150 209 142 329 -7 91 -38 132 -109 142 -18 3 -48
2 -64 -2z m37 -98 c62 -55 45 -253 -28 -329 -57 -61 -132 -41 -153 40 -31 123
15 274 93 307 26 10 66 2 88 -18z"/>
<path d="M15494 3261 c-43 -11 -99 -46 -117 -74 -41 -64 -28 -123 46 -197 94
-95 120 -163 75 -194 -31 -22 -57 -20 -109 8 l-44 23 -37 -29 c-21 -16 -38
-34 -38 -39 0 -18 68 -39 123 -39 94 0 193 66 212 143 14 53 -3 90 -80 177
-41 47 -78 95 -81 108 -13 48 46 68 108 36 30 -15 31 -15 64 17 19 18 34 36
34 40 0 18 -108 32 -156 20z"/>
<path d="M17344 3253 c-42 -24 -74 -52 -102 -87 -25 -33 -30 -76 -7 -76 8 0
15 4 15 10 0 18 63 81 72 72 6 -6 -1 -85 -18 -206 -32 -228 -29 -246 33 -246
32 0 45 8 95 60 l58 59 14 -32 c32 -77 108 -106 190 -72 54 23 136 105 136
138 0 33 -20 46 -34 21 -25 -43 -74 -84 -103 -84 -64 0 -103 59 -103 158 0
147 75 230 182 202 42 -12 43 -11 76 25 38 42 38 56 -4 67 -89 25 -214 -43
-291 -157 -24 -36 -63 -138 -63 -166 0 -26 -78 -131 -93 -126 -15 5 -12 48 14
221 25 170 25 201 -3 220 -28 20 -27 20 -64 -1z"/>
<path d="M20105 3259 c-61 -15 -112 -55 -130 -104 -15 -37 -15 -46 -2 -77 8
-20 37 -60 64 -89 72 -80 93 -114 93 -148 0 -61 -70 -76 -145 -31 l-30 18 -37
-32 c-21 -18 -38 -36 -38 -40 0 -15 72 -36 123 -36 110 0 217 86 217 174 0 47
-12 67 -88 150 -68 74 -91 119 -72 141 16 19 63 19 102 -1 30 -15 31 -15 64
17 19 18 34 36 34 40 0 19 -101 31 -155 18z"/>
<path d="M22867 3235 c-56 -43 -89 -88 -85 -115 5 -31 20 -28 46 11 27 39 50
55 62 43 5 -5 -3 -105 -16 -223 -14 -117 -23 -215 -20 -218 2 -3 24 1 48 9
l43 15 12 84 c17 119 31 163 73 228 44 68 76 91 128 91 31 0 45 7 75 38 20 21
37 43 37 49 0 28 -92 31 -135 4 -37 -23 -71 -54 -112 -106 l-32 -40 1 67 c1
42 -3 72 -11 82 -22 26 -64 19 -114 -19z"/>
<path d="M23395 3247 c-93 -44 -181 -163 -206 -279 -33 -151 49 -268 164 -237
82 22 167 98 167 150 0 42 -16 43 -40 4 -29 -47 -57 -65 -101 -65 -92 0 -130
157 -69 285 29 60 68 79 145 71 62 -6 62 -6 89 28 14 19 26 39 26 44 0 30
-109 29 -175 -1z"/>
<path d="M15950 3118 c-18 -13 -42 -35 -53 -50 -17 -23 -18 -30 -7 -43 12 -14
16 -12 41 17 15 18 31 30 35 25 4 -4 12 -71 17 -150 5 -78 14 -153 20 -167 21
-45 53 -38 113 24 30 31 54 49 54 41 0 -40 -45 -216 -67 -263 -34 -73 -102
-104 -180 -83 -35 10 -40 9 -67 -18 -32 -33 -29 -47 14 -56 79 -17 214 45 277
128 47 63 69 130 119 371 25 120 46 222 47 225 4 11 -13 13 -44 6 -34 -8 -43
-24 -58 -103 -17 -83 -93 -212 -126 -212 -15 0 -25 52 -25 145 -1 93 -14 156
-36 172 -25 18 -36 16 -74 -9z"/>
</g>
</svg>
